<?xml version="1.0" encoding="UTF-8"?>
<svg width="32px" height="32px" viewBox="0 0 32 32" version="1.1" xmlns="http://www.w3.org/2000/svg" xmlns:xlink="http://www.w3.org/1999/xlink">
    <!-- Generator: Sketch 63.1 (92452) - https://sketch.com -->
    <title>funcionarios</title>
    <desc>Created with Sketch.</desc>
    <g id="funcionarios" stroke="none" stroke-width="1" fill="none" fill-rule="evenodd">
        <g id="Group-5" fill="#292E60">
            <g id="Group-10">
                <rect id="Rectangle-Copy-9" opacity="0.1" x="0" y="0" width="32" height="32" rx="10"></rect>
                <g id="Combined-Shape-2" transform="translate(8.000000, 8.000000)" fill-rule="nonzero">
                    <path d="M13.7435897,-1.24344979e-13 C14.9897707,-1.24344979e-13 16,1.01022928 16,2.25641026 L16,10.4615385 C16,11.7077194 14.9897707,12.7179487 13.7435897,12.7179487 L12.717,12.717 L12.7179487,13.8608059 C12.7179487,14.990883 11.841671,15.9162945 10.7315271,15.9946289 L10.5787546,16 L3.07692308,16 C1.43827602,16 0.0988093544,14.7190564 0.00522327529,13.1038695 L-5.32907052e-15,12.9230769 L-5.32907052e-15,5.42124542 C-5.32907052e-15,4.29116826 0.876277736,3.36575674 1.98642163,3.28742242 L2.13919414,3.28205128 L3.282,3.282 L3.28205128,2.25641026 C3.28205128,1.01022928 4.29228056,-1.24344979e-13 5.53846154,-1.24344979e-13 L13.7435897,-1.24344979e-13 Z M3.282,4.512 L2.13919414,4.51282051 C1.67332129,4.51282051 1.28935613,4.86350904 1.23688087,5.31530389 L1.23076923,5.42124542 L1.23076923,12.9230769 C1.23076923,13.894127 1.98047556,14.6900738 2.93264724,14.7636764 L3.07692308,14.7692308 L10.5787546,14.7692308 C11.0446274,14.7692308 11.4285926,14.4185422 11.4810678,13.9667474 L11.4871795,13.8608059 L11.487,12.717 L5.53846154,12.7179487 C4.29228056,12.7179487 3.28205128,11.7077194 3.28205128,10.4615385 L3.282,4.512 Z M13.7435897,1.23076923 L5.53846154,1.23076923 C4.97201564,1.23076923 4.51282051,1.68996436 4.51282051,2.25641026 L4.51282051,10.4615385 C4.51282051,11.0279844 4.97201564,11.4871795 5.53846154,11.4871795 L13.7435897,11.4871795 C14.3100356,11.4871795 14.7692308,11.0279844 14.7692308,10.4615385 L14.7692308,2.25641026 C14.7692308,1.68996436 14.3100356,1.23076923 13.7435897,1.23076923 Z M11.6923077,7.38461538 C12.0321752,7.38461538 12.3076923,7.66013246 12.3076923,8 C12.3076923,8.30897049 12.0799922,8.56475878 11.7832447,8.60871227 L11.6923077,8.61538462 L7.58974359,8.61538462 C7.24987605,8.61538462 6.97435897,8.33986754 6.97435897,8 C6.97435897,7.69102951 7.20205904,7.43524122 7.49880656,7.39128773 L7.58974359,7.38461538 L11.6923077,7.38461538 Z M11.6923077,4.1025641 C12.0321752,4.1025641 12.3076923,4.37808118 12.3076923,4.71794872 C12.3076923,5.05781626 12.0321752,5.33333333 11.6923077,5.33333333 L11.6923077,5.33333333 L7.58974359,5.33333333 C7.24987605,5.33333333 6.97435897,5.05781626 6.97435897,4.71794872 C6.97435897,4.37808118 7.24987605,4.1025641 7.58974359,4.1025641 L7.58974359,4.1025641 Z" id="Combined-Shape"></path>
                </g>
            </g>
        </g>
    </g>
</svg>